P3
# Created by IrfanView
59 56
255
6 251 6 3 253 6 0 255 5 0 255 5 0 255 5 
0 255 3 6 252 3 4 253 1 1 254 5 0 255 5 
0 255 8 0 255 6 1 254 5 3 254 1 0 255 1 
0 255 0 0 255 3 0 255 2 0 255 1 2 255 1 
0 255 0 1 254 3 8 251 9 36 230 35 97 194 81 
0 19 0 28 6 0 44 0 0 46 0 0 47 0 0 
43 0 0 38 0 0 45 2 0 24 1 0 4 19 0 
96 187 84 30 233 30 0 255 5 0 253 0 0 255 0 
0 255 0 0 255 0 4 253 3 4 252 6 3 253 6 
0 255 3 0 255 0 0 255 0 0 255 1 0 255 3 
4 253 3 4 254 0 0 255 0 0 255 0 1 255 0 
1 255 0 3 253 6 1 253 10 0 255 8 4 253 3 
1 254 3 0 255 3 0 255 3 0 255 3 1 254 3 
4 253 1 4 253 1 0 255 3 0 255 5 0 255 6 
0 255 5 1 254 3 3 254 1 1 255 1 0 255 0 
0 255 0 1 255 3 0 252 0 4 255 4 1 255 0 
8 247 4 30 234 25 66 212 51 0 35 0 23 22 0 
64 22 0 113 49 37 141 73 64 116 48 39 95 35 24 
90 33 22 69 12 3 42 3 0 23 17 0 0 37 0 
56 211 45 24 239 21 9 253 8 1 255 1 0 255 0 
0 255 0 4 253 3 6 252 5 4 252 6 1 254 3 
0 255 0 0 255 0 0 255 0 0 255 1 3 254 3 
3 254 3 1 255 0 0 255 0 0 255 0 1 255 0 
1 254 3 1 254 5 0 255 6 0 255 0 0 255 0 
0 255 0 0 255 1 3 254 1 4 254 0 3 255 0 
1 255 0 0 255 1 0 255 3 0 255 3 0 255 3 
0 255 1 1 255 1 3 254 1 3 254 0 3 255 0 
5 255 1 3 251 4 3 254 3 0 248 0 31 243 21 
80 206 62 0 41 0 45 34 0 70 16 0 146 62 38 
236 135 117 255 152 138 255 156 143 237 140 123 192 101 83 
115 29 14 82 10 0 57 7 0 21 13 0 0 43 0 
70 203 52 28 243 17 0 252 0 0 255 5 0 255 6 
3 254 3 7 252 1 7 251 5 4 253 3 0 255 0 
0 255 0 0 255 0 0 255 0 1 254 3 1 254 6 
3 253 8 1 254 6 0 255 1 0 255 0 0 255 0 
1 255 0 1 255 1 0 255 0 0 255 0 0 255 1 
0 255 1 3 254 0 3 255 0 1 255 0 0 255 0 
0 255 1 0 255 1 0 255 0 0 255 0 0 255 0 
0 255 0 3 254 1 4 254 0 1 253 0 2 254 0 
8 255 7 8 254 7 15 255 10 40 220 24 0 42 0 
40 21 0 103 40 5 142 47 17 175 57 31 215 85 61 
237 105 84 235 105 83 232 108 84 210 92 66 146 36 11 
120 20 0 126 39 20 79 21 0 30 15 0 0 43 0 
59 216 41 27 248 23 3 251 14 0 255 8 1 255 1 
4 254 0 6 252 3 6 252 3 1 255 0 0 255 0 
0 255 0 0 255 0 0 255 1 0 255 6 1 253 10 
3 252 10 1 254 5 0 255 0 0 255 0 0 255 0 
1 255 0 0 255 5 0 255 5 0 255 6 0 255 3 
0 255 0 0 255 0 0 255 0 0 255 3 0 255 5 
0 255 3 0 255 0 0 255 0 0 255 0 0 255 0 
1 255 0 1 255 0 1 255 0 0 254 0 0 253 0 
4 246 2 24 240 19 73 214 50 13 24 0 103 37 15 
209 114 86 223 104 72 227 86 56 240 89 58 236 89 55 
220 78 42 231 93 57 218 84 47 226 94 56 220 96 62 
232 120 98 199 106 89 93 30 12 26 18 0 0 37 0 
61 205 55 18 242 24 0 255 5 0 255 0 0 255 0 
3 254 1 3 254 3 1 254 5 0 255 1 0 255 0 
0 255 0 0 255 0 0 255 1 0 255 6 3 253 8 
4 252 6 3 254 3 0 255 0 0 255 0 0 255 1 
0 254 8 0 255 6 0 255 5 0 255 3 0 255 0 
0 255 0 0 255 1 0 255 3 0 255 5 0 255 3 
0 255 0 0 255 0 0 255 0 0 255 0 0 255 0 
0 255 0 0 255 0 0 255 0 8 254 7 27 241 23 
57 214 45 0 47 0 51 17 0 138 42 28 207 92 61 
217 84 43 244 88 50 241 78 37 232 74 29 242 90 43 
238 90 44 235 90 43 229 84 37 233 94 51 239 108 80 
215 100 81 123 33 22 58 5 0 24 25 0 0 49 0 
32 233 30 0 255 0 0 255 0 0 255 0 0 255 0 
1 255 1 0 255 5 0 255 3 0 255 0 0 255 0 
0 255 0 0 255 1 0 255 5 1 254 6 4 252 5 
4 253 3 0 255 0 0 255 0 0 255 0 0 255 3 
0 255 1 0 255 0 0 255 0 3 254 3 4 252 5 
4 253 3 1 254 3 0 255 1 0 255 1 0 255 1 
1 255 0 3 255 0 1 255 0 0 255 1 0 255 1 
1 255 0 8 250 5 19 239 19 53 215 44 0 43 0 
27 15 0 92 21 3 143 36 16 212 91 46 233 94 37 
242 82 32 252 82 33 255 89 37 242 81 27 232 78 24 
247 98 42 239 89 36 234 88 39 239 101 64 219 95 67 
139 40 21 81 9 0 44 1 0 0 29 0 45 228 26 
1 255 0 0 255 0 0 255 0 0 255 0 0 255 0 
0 255 0 0 255 0 4 253 3 6 252 5 1 254 5 
0 255 3 0 255 3 0 255 1 1 255 0 3 255 0 
1 255 0 0 255 0 0 255 0 0 255 1 0 255 0 
0 255 0 0 255 0 4 253 3 6 251 6 4 252 5 
1 254 3 0 255 0 0 255 0 0 255 1 3 254 1 
4 253 1 3 254 1 0 255 3 0 255 3 3 254 3 
18 244 14 47 227 42 0 56 0 19 18 0 79 11 0 
107 11 0 158 43 14 222 95 44 239 99 38 242 85 30 
249 84 30 253 86 31 243 78 22 248 89 31 240 86 26 
241 86 29 240 89 36 254 109 64 224 91 56 149 39 12 
96 7 0 72 1 0 13 21 0 67 213 42 21 243 10 
14 246 10 13 247 10 17 244 15 13 247 12 0 255 5 
0 255 1 4 253 3 7 251 5 6 252 5 3 254 3 
0 255 3 0 255 0 0 255 0 0 255 0 1 255 0 
0 255 0 0 255 0 0 254 0 3 255 1 3 254 0 
3 254 0 2 254 0 2 255 2 2 255 7 1 255 6 
0 252 0 3 255 0 0 255 0 0 252 0 5 253 7 
4 252 8 0 254 6 2 255 8 0 252 4 28 236 26 
79 201 64 0 35 0 114 72 34 213 122 101 206 97 64 
204 81 39 227 91 43 231 87 35 229 82 30 238 87 32 
250 90 32 253 88 30 250 87 28 250 87 30 244 83 28 
242 85 32 245 93 43 234 93 48 188 64 30 148 41 21 
104 19 16 34 14 0 0 48 0 62 222 52 38 227 36 
38 229 37 48 218 47 43 225 44 15 246 20 0 255 2 
0 255 1 0 253 0 7 255 3 3 254 1 0 251 1 
0 255 3 1 255 5 0 255 0 0 255 0 0 255 0 
0 255 0 0 255 1 4 255 2 2 254 0 5 255 0 
1 255 0 0 254 0 0 251 3 1 254 6 4 255 5 
0 255 0 1 250 0 12 251 10 22 243 24 18 235 24 
21 242 27 12 242 19 6 255 13 33 230 29 0 49 0 
32 19 0 166 97 66 240 135 105 239 118 75 238 106 58 
255 114 74 246 103 63 239 100 57 247 105 59 255 103 53 
252 93 38 251 88 33 244 81 26 248 87 33 245 88 35 
236 84 34 227 86 41 239 110 78 237 126 107 159 69 69 
52 17 0 0 47 0 86 195 78 80 207 74 0 52 0 
0 91 0 77 194 77 46 222 51 20 237 26 7 248 11 
6 255 4 1 252 0 2 253 0 5 255 8 0 254 4 
3 255 8 0 252 0 0 255 1 0 255 0 0 255 1 
0 252 0 0 255 2 0 255 1 0 255 1 0 254 0 
3 255 5 1 251 4 5 255 8 0 251 0 2 250 3 
24 252 19 28 230 24 54 224 55 61 216 63 53 210 57 
45 230 49 9 246 16 45 235 39 0 32 0 62 14 0 
169 85 57 231 123 85 241 113 64 221 83 36 203 62 32 
201 61 36 193 57 33 191 51 24 211 62 32 222 68 30 
235 79 31 234 77 24 238 84 34 250 100 50 249 104 57 
217 81 43 196 72 48 185 78 68 120 39 38 42 9 0 
0 30 0 108 174 100 29 77 19 108 141 98 100 123 94 
74 116 70 105 191 104 74 208 75 40 226 41 22 244 23 
2 247 2 0 255 0 1 255 0 0 252 1 6 251 6 
6 254 10 0 255 3 0 255 3 0 255 3 2 255 7 
3 255 9 0 252 0 0 255 4 0 255 3 0 252 0 
5 255 7 5 248 6 16 246 16 32 238 31 55 221 49 
0 61 0 0 49 0 0 52 0 0 47 0 0 52 0 
52 218 46 72 200 51 34 34 0 78 6 0 185 90 58 
253 138 93 244 113 61 195 54 8 146 7 0 145 6 0 
142 6 0 138 3 0 151 10 0 162 18 0 206 56 21 
235 84 41 238 90 42 255 109 62 255 122 79 215 85 51 
141 22 2 105 4 0 79 3 3 48 11 2 6 24 0 
4 34 0 193 194 180 255 245 245 226 214 218 126 127 119 
98 128 94 87 154 83 65 182 65 56 223 58 25 239 27 
10 255 10 1 255 0 1 255 0 6 250 5 6 251 6 
0 255 3 0 255 1 0 255 1 3 255 10 0 252 2 
0 255 2 0 255 0 0 255 0 1 255 3 0 255 2 
14 244 13 49 228 41 71 195 61 0 31 0 48 85 42 
153 187 150 126 156 120 35 60 18 0 25 0 2 37 0 
26 37 0 65 19 0 94 12 0 179 73 31 255 133 82 
255 121 70 211 73 27 168 28 0 164 26 0 155 20 0 
144 13 0 150 20 6 160 28 13 202 63 42 222 79 49 
237 92 47 255 110 63 252 112 76 213 84 53 140 30 5 
99 7 0 80 6 5 46 0 2 20 5 0 21 18 9 
166 156 154 255 251 250 200 195 192 76 75 70 89 95 85 
85 102 83 100 134 99 92 174 92 52 214 53 20 237 22 
6 252 3 0 253 0 10 255 5 5 251 0 0 255 0 
0 255 0 0 255 0 1 251 6 0 251 2 4 255 2 
0 254 0 0 255 0 0 252 1 8 244 11 38 232 39 
0 52 0 0 40 0 5 16 0 88 77 83 255 251 248 
238 235 226 70 58 46 26 4 0 40 8 0 54 6 0 
68 0 0 108 19 0 195 85 36 249 124 68 251 117 64 
240 99 53 241 102 61 240 101 68 187 51 25 138 8 0 
139 14 0 138 11 0 150 13 0 157 15 0 188 45 3 
240 98 52 255 113 77 221 88 57 146 35 5 98 6 0 
82 4 0 60 3 9 41 9 14 17 1 4 137 125 127 
255 250 251 248 244 243 243 239 240 255 252 253 242 237 241 
138 133 139 70 108 71 71 197 72 38 232 39 13 250 12 
0 253 0 3 254 0 1 252 0 1 255 0 0 255 0 
0 255 0 6 255 5 5 254 2 0 250 0 5 255 3 
0 254 0 10 246 14 42 230 47 0 65 0 52 117 53 
110 132 109 106 108 103 154 148 148 248 243 237 214 205 196 
126 109 101 113 89 79 116 87 73 122 75 55 124 52 27 
133 39 1 172 62 9 242 119 59 243 108 52 247 106 53 
241 101 48 239 101 55 186 47 18 154 16 0 156 26 0 
149 14 0 161 15 0 186 36 11 181 35 0 234 89 45 
255 111 71 226 86 50 158 35 2 111 7 0 88 0 0 
63 0 0 38 2 4 13 0 0 123 114 119 248 243 249 
253 245 255 239 234 241 252 250 251 255 255 255 123 122 128 
22 59 28 60 169 60 46 220 45 14 243 16 0 255 3 
0 255 2 0 255 2 1 254 3 0 255 1 0 255 0 
5 252 0 5 255 0 7 255 4 0 254 0 1 254 3 
19 243 23 55 216 60 0 70 0 197 230 199 252 252 252 
254 250 247 255 251 245 255 251 243 255 243 235 255 241 236 
255 238 229 255 235 220 255 216 190 248 168 133 208 107 61 
216 103 45 212 86 25 234 95 38 234 91 35 241 100 46 
240 99 53 229 88 58 239 101 73 241 109 70 238 102 62 
248 94 66 241 84 53 232 83 41 236 90 43 240 92 46 
230 87 45 214 81 48 207 88 64 159 57 43 84 7 1 
44 0 0 21 1 2 126 117 120 255 250 255 255 250 255 
249 237 247 254 249 253 245 245 245 156 157 161 86 111 89 
89 165 90 68 206 67 22 239 26 0 254 2 1 255 5 
0 255 3 1 254 3 1 254 3 0 255 5 4 250 0 
6 255 4 0 255 0 0 255 1 0 253 4 21 240 26 
60 214 64 0 53 0 156 185 155 255 253 250 252 245 235 
251 241 231 252 242 233 255 246 241 255 234 228 255 234 223 
255 230 211 255 211 181 230 139 95 197 83 29 216 93 33 
226 94 32 233 90 34 243 96 44 249 103 56 249 105 68 
251 113 84 255 124 94 249 121 82 250 117 74 252 98 60 
253 94 52 242 90 40 229 82 28 228 87 31 229 88 42 
231 90 60 243 111 90 201 84 67 102 12 1 56 3 0 
35 7 4 184 169 166 255 247 247 255 246 252 255 245 254 
255 243 250 255 252 255 222 221 217 138 146 135 119 143 119 
97 185 98 34 232 31 0 254 0 4 254 0 4 254 0 
1 255 0 0 251 0 3 255 12 7 255 4 0 254 0 
0 255 0 0 255 2 2 255 6 21 238 25 61 214 64 
0 57 0 169 195 170 255 249 247 255 249 237 146 128 114 
89 66 58 90 61 55 116 79 71 121 74 64 130 77 59 
145 71 42 153 48 1 209 88 31 255 134 74 246 116 58 
238 96 46 220 73 29 189 40 7 178 34 7 175 40 18 
169 43 18 177 52 20 183 51 13 215 65 28 230 74 34 
224 76 30 237 95 45 237 103 52 232 101 57 232 94 68 
222 89 74 185 63 50 113 15 4 66 3 0 50 9 5 
152 123 117 217 189 185 218 183 187 209 177 182 213 186 193 
211 191 193 173 158 155 124 126 112 119 150 118 84 181 84 
32 235 31 6 255 4 0 250 0 8 255 3 1 255 0 
1 255 2 0 252 2 1 255 2 0 253 0 0 255 0 
0 253 0 0 253 2 21 240 24 63 216 64 0 59 0 
198 221 201 252 239 246 255 242 235 179 150 136 49 5 0 
59 2 0 67 3 0 82 6 0 98 11 0 110 11 0 
157 42 0 241 120 67 255 142 88 255 134 83 254 121 80 
196 56 23 158 13 0 143 3 0 138 8 0 126 2 0 
133 10 0 149 20 0 210 68 44 236 90 65 237 97 70 
254 123 93 252 129 95 245 126 94 248 127 110 251 130 121 
205 92 86 114 17 11 73 0 0 60 0 0 60 7 0 
53 3 0 54 0 0 56 4 8 55 11 12 44 4 5 
49 10 15 90 97 66 113 210 107 56 226 59 16 242 20 
0 252 0 1 255 2 0 254 0 0 254 0 4 255 0 
7 254 0 0 254 1 3 255 5 2 255 0 7 255 4 
1 255 0 13 244 14 45 227 46 0 65 0 43 102 46 
106 118 98 128 110 96 104 60 47 82 16 0 95 14 0 
152 59 44 191 85 69 189 73 50 207 84 51 226 100 52 
234 110 58 201 83 33 183 62 19 180 47 14 168 28 3 
180 35 18 199 57 45 176 45 35 140 18 7 128 6 0 
140 17 1 181 49 34 203 70 55 204 74 60 207 84 66 
207 93 67 202 92 69 202 92 79 206 97 90 171 66 62 
103 4 0 94 6 2 87 7 0 89 11 0 106 30 17 
116 37 32 98 23 18 90 21 14 97 32 28 117 52 56 
125 108 78 106 183 79 70 209 54 57 221 46 38 228 30 
30 241 24 14 246 12 3 251 5 0 253 0 5 253 0 
0 255 6 0 253 0 4 255 0 0 249 0 2 255 0 
1 255 0 7 246 3 38 237 34 0 56 0 0 41 0 
16 11 0 61 5 0 94 9 0 118 12 0 188 66 43 
239 108 78 248 108 72 232 91 46 253 117 65 243 112 60 
164 37 0 134 6 0 149 11 0 160 16 0 220 71 51 
252 107 88 198 65 46 134 11 0 119 0 0 121 4 0 
122 4 0 130 12 2 118 0 0 115 2 0 117 11 0 
104 4 0 103 2 0 112 11 3 106 5 0 106 5 0 
111 10 0 111 11 0 139 38 18 205 103 81 245 139 125 
251 148 133 237 138 119 199 103 87 142 47 43 95 23 11 
61 33 0 32 36 0 22 41 0 2 58 0 81 199 59 
49 225 39 11 244 13 2 255 7 0 255 0 0 255 5 
2 255 8 4 255 2 4 255 0 2 255 0 0 255 0 
0 255 0 12 247 7 49 226 47 93 192 76 22 21 0 
82 14 1 169 69 46 188 65 34 205 62 30 234 82 43 
244 89 41 233 82 29 242 97 40 243 104 49 206 69 23 
184 46 7 185 42 10 185 37 9 208 54 28 218 66 42 
189 50 27 152 23 1 141 19 0 137 20 2 148 38 23 
160 52 39 138 26 15 130 18 4 140 35 13 132 32 9 
118 17 5 108 7 0 103 1 0 131 25 9 141 32 9 
139 25 0 152 33 3 214 90 62 245 117 92 243 115 88 
240 115 83 201 80 51 165 44 27 122 10 0 106 15 0 
89 12 0 69 0 0 53 19 0 4 32 0 0 60 0 
38 233 32 0 244 3 1 255 2 0 253 4 0 255 6 
0 255 0 0 252 0 1 255 0 2 255 2 2 255 2 
15 247 13 38 226 28 90 201 63 25 19 0 100 21 8 
208 100 72 243 111 73 250 94 53 243 81 34 244 85 30 
247 93 33 242 90 27 239 89 28 250 101 45 249 99 49 
238 89 46 233 79 41 205 45 11 178 19 0 176 31 4 
205 69 43 240 112 87 250 131 107 255 150 127 255 152 132 
237 124 108 242 127 109 255 148 123 233 127 103 167 59 49 
113 4 0 137 25 11 223 109 83 245 129 92 235 113 72 
220 91 52 235 99 61 243 99 64 231 85 46 238 91 47 
233 88 44 228 84 49 226 91 59 232 113 79 208 103 71 
195 97 72 199 117 93 121 62 32 24 38 0 73 209 49 
28 237 22 12 247 5 1 255 7 0 252 2 3 255 2 
0 255 0 3 255 4 3 251 4 9 246 8 32 234 24 
69 216 48 0 47 0 57 26 0 118 25 8 206 89 56 
239 102 56 237 82 28 254 89 31 246 86 26 241 83 20 
249 93 32 246 90 31 243 87 30 240 85 31 238 86 36 
236 81 37 219 55 18 192 29 0 178 27 0 201 60 33 
240 106 81 243 117 92 230 114 89 230 116 92 246 125 106 
255 138 117 249 134 107 218 102 79 174 55 47 125 4 0 
141 19 0 229 106 72 247 125 76 235 108 57 244 108 66 
248 105 65 247 95 56 239 84 40 239 83 32 246 92 40 
243 92 47 241 99 53 241 106 58 238 113 67 234 111 77 
222 106 83 179 69 56 80 27 0 0 54 0 73 207 48 
45 227 28 0 253 5 2 255 6 0 253 0 0 255 0 
0 255 4 9 252 10 26 235 19 66 213 45 0 35 0 
41 18 0 95 19 0 145 35 10 214 91 50 231 96 40 
236 89 20 250 96 26 247 89 24 242 82 24 251 92 36 
254 94 42 255 100 49 255 101 51 245 97 49 242 91 48 
245 82 47 248 85 54 206 51 23 163 18 0 163 21 0 
163 27 5 155 23 2 161 30 10 166 33 16 166 36 14 
165 40 12 162 36 13 159 26 19 141 4 0 159 23 0 
236 103 60 254 125 67 230 101 43 207 69 30 188 44 10 
198 48 11 238 85 43 233 81 32 237 90 38 231 89 39 
228 88 35 226 87 28 238 99 44 241 99 61 221 83 54 
202 74 49 171 74 42 121 78 35 14 35 0 92 191 62 
4 255 8 0 253 0 1 255 0 3 255 1 0 255 4 
6 237 7 56 226 42 0 52 0 58 42 0 120 41 26 
137 33 8 164 42 5 216 84 36 237 97 38 235 88 19 
234 81 11 247 89 28 254 95 40 253 95 48 255 98 57 
255 103 63 255 105 66 255 111 70 252 103 63 252 89 58 
248 83 53 211 54 21 176 25 0 166 21 0 161 17 0 
158 14 0 161 17 0 158 16 0 159 21 0 154 21 0 
155 22 0 163 21 7 153 7 0 168 24 0 230 90 39 
255 130 62 242 110 48 201 63 27 162 21 0 171 23 0 
230 83 49 255 114 71 254 116 70 255 120 74 241 103 54 
232 91 35 235 92 36 251 103 57 239 91 53 225 87 51 
239 115 89 209 109 94 90 39 10 11 33 0 0 255 0 
0 255 0 3 255 0 0 254 0 0 255 6 27 240 28 
86 200 63 15 40 0 153 99 55 224 124 92 220 103 59 
230 99 47 251 107 55 255 105 50 245 90 33 239 83 26 
253 93 41 238 80 35 191 37 3 177 26 0 175 26 2 
174 28 3 184 39 12 181 30 1 211 47 19 244 79 47 
247 88 49 237 86 43 236 90 49 236 92 55 241 88 56 
237 84 52 229 81 45 234 93 50 228 92 44 221 83 37 
225 80 49 224 75 43 223 72 25 228 84 23 255 118 48 
255 123 62 201 63 34 151 11 0 160 20 3 191 56 34 
206 78 51 206 78 49 216 77 48 214 71 37 213 76 30 
226 89 37 251 107 54 245 101 49 233 90 46 230 97 66 
191 78 60 116 33 15 56 11 0 0 255 0 0 255 0 
0 255 0 0 255 0 0 255 7 36 232 34 0 45 0 
48 28 0 163 81 43 241 125 84 232 105 52 232 93 36 
244 94 41 255 102 51 255 95 47 255 94 48 255 103 58 
247 91 53 184 34 9 156 11 0 156 11 0 165 19 0 
173 25 0 167 12 0 199 34 6 248 81 47 255 101 59 
255 102 56 253 107 58 250 104 57 254 99 55 255 98 53 
255 107 57 250 103 49 248 105 45 255 113 55 255 108 60 
255 104 57 254 103 46 237 92 27 242 103 34 255 124 68 
200 62 36 140 3 0 148 14 3 148 20 7 135 15 0 
138 16 0 146 7 0 158 13 0 161 19 0 219 78 32 
255 113 57 245 102 46 249 107 61 243 110 77 170 58 38 
99 17 0 68 24 0 1 254 5 1 255 1 3 255 0 
0 252 0 2 255 7 44 227 38 2 45 0 65 15 0 
177 80 48 247 124 83 231 97 46 221 78 22 243 94 38 
255 103 54 227 63 25 197 33 0 199 41 6 206 53 21 
171 27 1 157 15 0 187 42 13 228 79 47 231 77 43 
209 49 17 204 36 7 212 43 10 220 54 14 235 77 30 
241 91 40 234 88 31 242 89 31 249 93 32 248 95 28 
244 92 25 242 93 25 249 102 33 244 96 32 239 91 27 
244 96 32 234 91 25 234 94 32 249 111 62 196 60 36 
138 4 0 143 12 4 147 23 13 133 15 3 136 13 0 
163 23 0 193 44 12 180 30 0 230 78 39 253 106 55 
231 87 35 232 95 49 230 110 75 174 75 56 127 77 44 
82 105 25 0 255 5 2 255 5 0 253 0 2 255 0 
0 252 1 46 222 35 8 35 0 80 17 2 173 75 46 
245 126 84 236 104 55 227 86 33 242 95 43 246 91 43 
207 48 9 180 20 0 171 14 0 179 29 0 164 20 0 
164 21 0 205 57 19 248 95 53 249 88 46 227 61 21 
209 45 10 184 17 0 194 26 0 229 66 23 246 91 43 
250 99 44 253 99 37 249 94 27 240 83 12 253 96 25 
251 97 27 246 93 23 243 92 21 241 94 24 247 102 39 
247 104 46 241 100 47 243 104 63 192 56 34 138 4 0 
134 6 0 135 11 0 123 1 0 136 7 0 173 30 0 
228 75 41 236 79 46 247 91 53 241 93 47 227 89 42 
215 90 46 184 91 47 213 171 121 219 242 160 91 193 55 
0 255 0 0 255 3 0 253 0 3 254 1 7 255 3 
46 223 29 23 50 0 69 9 0 160 75 44 229 122 80 
212 87 41 217 80 34 241 96 51 245 97 51 225 77 31 
218 70 22 226 73 29 232 80 39 224 78 41 223 75 37 
238 83 35 243 82 28 244 77 24 238 70 21 235 74 30 
212 50 11 214 46 9 223 55 18 229 67 28 238 80 33 
242 85 32 250 92 31 254 95 29 254 92 27 253 89 28 
252 90 28 248 94 24 246 99 30 243 100 44 232 91 45 
233 91 51 228 89 56 185 49 27 147 14 0 138 9 0 
147 18 0 153 18 0 167 27 0 188 39 7 223 69 33 
246 90 52 244 91 50 231 88 44 220 91 49 214 102 64 
166 118 54 122 181 65 71 212 46 37 235 26 0 255 3 
0 255 1 4 255 6 2 253 0 3 255 0 42 229 26 
0 58 0 42 18 0 139 76 43 240 150 116 234 124 89 
242 120 83 246 116 80 241 105 67 232 93 50 238 93 46 
255 105 55 255 108 58 251 102 59 249 98 51 255 97 42 
248 83 25 255 86 31 253 87 35 246 89 38 241 83 38 
231 63 26 202 32 0 188 24 0 189 30 0 206 45 0 
248 89 34 255 95 33 247 84 19 255 86 29 254 88 30 
245 90 23 255 105 42 232 87 40 174 32 0 157 16 0 
160 21 0 155 18 0 156 21 1 153 23 0 202 71 43 
247 106 78 245 101 67 235 87 51 242 94 56 238 90 54 
213 85 40 199 104 46 175 110 42 174 134 64 143 172 66 
69 209 38 26 240 20 4 252 5 2 255 5 0 251 0 
1 255 4 2 255 3 0 252 0 31 240 24 77 199 62 
0 42 0 80 49 18 163 87 74 160 73 53 169 73 49 
166 64 39 188 74 48 211 80 50 225 81 46 234 86 38 
234 83 30 239 89 38 243 92 37 240 81 23 247 87 29 
247 86 34 250 90 40 245 90 34 245 88 37 229 63 25 
196 29 0 185 21 0 186 27 0 220 61 21 255 98 50 
252 94 33 246 84 19 252 86 26 246 81 23 244 86 23 
255 104 50 238 86 47 172 24 0 155 12 0 147 9 0 
153 16 0 152 17 0 160 30 0 210 77 42 240 97 63 
233 89 52 233 92 49 229 93 53 217 88 56 191 108 58 
120 113 23 82 133 14 59 148 6 72 213 39 35 234 19 
10 249 6 0 255 0 1 254 3 1 255 2 1 255 2 
0 253 0 4 255 4 15 242 12 44 224 39 0 56 0 
3 28 0 38 16 0 45 16 0 45 11 0 62 22 0 
83 20 0 133 24 0 215 80 50 232 89 49 243 97 50 
255 109 60 244 97 46 248 96 46 252 97 49 255 102 61 
251 96 52 240 86 32 246 89 36 231 68 27 189 24 0 
175 11 0 182 22 0 211 50 8 255 98 46 255 97 32 
236 78 7 247 84 19 244 82 18 247 93 31 255 111 58 
231 77 41 161 11 0 152 10 0 149 12 4 168 30 17 
195 60 38 213 83 49 245 113 75 245 107 71 223 91 52 
198 84 34 176 87 29 196 141 76 187 190 99 102 190 51 
66 213 37 49 229 33 26 236 17 13 248 6 1 255 0 
0 255 0 0 255 0 0 255 0 0 254 0 2 254 0 
0 252 1 8 252 7 20 250 17 42 226 30 1 108 0 
79 145 45 78 141 37 79 140 36 71 130 22 99 116 24 
138 68 17 181 62 32 214 80 53 230 91 62 236 97 64 
238 100 64 238 98 62 241 98 64 245 97 69 246 96 63 
248 96 47 247 91 40 220 57 16 193 26 0 189 25 0 
199 33 0 215 49 0 252 88 25 253 93 19 240 83 4 
252 92 18 245 88 17 242 95 28 255 111 54 237 84 43 
170 20 0 148 10 0 145 12 5 162 26 12 208 76 53 
252 123 92 255 132 99 240 111 80 180 72 33 124 58 0 
128 121 30 119 186 54 78 210 38 41 229 20 22 244 11 
13 244 6 13 253 8 4 254 0 1 255 0 0 255 1 
0 255 0 2 255 0 1 255 0 6 255 1 4 255 4 
0 252 1 0 251 0 16 242 10 59 220 44 82 208 62 
90 204 67 86 196 63 87 193 57 122 176 65 224 174 115 
138 27 0 129 3 0 147 12 0 146 12 0 158 25 0 
159 24 0 158 21 0 157 13 0 162 14 0 180 31 0 
192 37 0 190 26 0 226 60 22 255 89 49 254 89 43 
249 84 28 247 85 20 246 88 14 251 94 15 252 95 18 
245 91 17 238 94 24 249 106 46 247 95 46 180 30 0 
146 9 0 146 15 5 151 19 4 165 39 17 174 54 30 
189 79 52 209 112 79 155 100 43 146 164 64 100 189 45 
63 222 33 26 236 13 8 250 5 1 255 1 0 255 2 
0 254 0 0 255 0 1 255 0 3 253 5 0 253 0 
1 255 0 0 255 0 0 251 0 2 253 0 6 255 4 
0 253 0 14 251 15 40 231 31 58 210 40 75 201 57 
94 201 71 94 195 65 125 174 69 197 146 91 139 30 1 
139 15 0 159 28 0 159 29 0 151 19 0 163 25 0 
161 22 0 168 23 0 165 17 0 174 23 0 180 26 0 
188 28 0 231 67 29 255 92 47 255 97 43 252 97 43 
241 91 30 247 93 23 251 95 20 249 88 16 244 87 16 
240 96 26 248 106 40 246 93 35 186 35 0 150 11 0 
132 2 0 138 13 0 134 17 0 110 4 0 122 42 19 
190 147 102 169 200 106 74 212 41 35 236 20 23 243 11 
13 248 5 3 251 4 0 254 4 0 255 6 0 255 8 
0 255 0 1 255 0 3 253 5 27 234 30 28 235 31 
28 235 31 27 246 28 8 247 4 0 252 0 0 255 5 
13 244 14 47 221 35 0 91 0 0 76 0 9 66 0 
23 69 0 64 65 0 112 35 0 187 66 35 208 75 44 
235 97 61 244 106 67 239 101 55 243 101 53 244 99 52 
241 95 54 236 88 52 242 92 57 238 84 48 243 85 46 
248 87 41 249 86 31 250 90 32 239 90 32 236 90 31 
246 94 29 246 89 22 253 94 26 244 90 18 242 94 24 
249 102 33 246 92 28 221 70 17 204 61 27 189 57 32 
163 37 15 130 17 0 106 8 0 103 54 21 92 125 38 
83 203 54 23 236 20 0 255 6 5 255 3 5 255 0 
0 250 0 3 255 9 0 255 9 0 252 0 0 255 0 
0 255 0 1 254 5 86 202 95 98 211 105 113 219 119 
63 205 67 23 243 23 2 255 1 0 252 0 29 240 23 
84 201 60 23 66 0 25 18 0 51 10 0 72 12 0 
101 16 0 156 34 0 211 67 32 239 87 50 252 97 53 
249 99 46 250 102 42 246 96 37 252 103 45 248 103 48 
255 113 60 252 100 50 249 95 43 255 102 45 247 93 33 
250 91 25 254 97 30 245 97 33 244 98 38 243 89 35 
244 89 32 254 103 34 246 95 22 248 91 20 250 93 24 
252 95 28 255 103 43 240 94 47 246 108 71 218 87 57 
141 22 0 100 0 0 41 25 0 84 210 51 23 237 19 
9 254 13 0 255 4 0 252 0 4 255 0 0 255 0 
0 254 0 2 253 0 3 255 1 0 255 0 0 255 1 
0 255 5 0 43 0 1 46 3 29 67 30 75 163 76 
36 228 33 14 247 8 27 237 18 64 215 42 66 120 24 
53 34 0 87 19 8 122 20 16 164 49 31 202 71 41 
217 74 32 238 83 37 247 87 39 247 86 34 252 94 33 
244 90 26 247 94 34 240 94 35 234 93 39 237 97 44 
239 98 45 238 97 43 235 96 39 231 91 30 240 95 32 
238 93 30 240 97 37 240 99 45 236 90 41 242 95 43 
243 99 36 242 95 26 252 94 29 251 89 25 253 94 29 
253 97 36 244 93 38 233 88 41 216 76 41 169 44 16 
133 31 6 83 66 0 73 202 40 26 241 23 1 248 7 
0 255 6 0 255 1 0 254 0 3 255 0 1 255 0 
5 252 0 4 254 0 0 255 1 0 255 1 0 255 3 
22 29 13 0 5 0 34 38 21 133 188 120 60 215 49 
49 224 33 85 199 60 145 196 103 126 113 58 72 8 0 
100 0 0 137 17 1 181 57 21 218 86 37 229 89 28 
245 95 32 247 88 30 250 87 28 254 95 30 239 85 23 
244 97 45 248 107 61 238 107 63 236 110 70 231 112 72 
233 115 75 237 118 76 240 119 74 242 118 67 242 114 65 
239 111 66 237 106 62 239 111 62 243 112 58 241 105 47 
248 105 47 246 95 42 249 92 39 255 94 39 246 83 26 
255 100 43 242 90 40 247 98 58 236 102 67 237 128 95 
255 220 165 220 255 163 77 206 53 23 238 20 1 255 5 
0 255 0 0 255 0 0 255 1 0 255 1 2 253 2 
4 255 4 0 255 1 0 255 1 1 255 0 47 28 24 
26 6 0 55 32 18 160 173 119 105 190 63 65 156 19 
47 76 0 76 54 7 100 39 8 152 60 35 198 79 55 
208 77 47 215 82 37 230 95 39 236 98 33 225 83 17 
239 93 33 229 81 21 237 93 33 243 106 51 214 87 42 
178 71 27 178 97 44 157 92 34 154 95 37 152 98 38 
152 98 38 152 97 33 157 98 32 166 102 38 175 106 47 
178 110 49 173 108 42 186 108 44 207 100 48 221 94 49 
234 97 53 229 83 36 242 82 32 255 92 39 244 85 29 
236 81 27 243 88 42 238 97 54 225 106 64 212 128 81 
201 167 106 134 177 72 66 213 37 26 238 14 8 248 3 
0 254 0 1 255 6 0 254 4 0 252 1 1 255 2 
0 255 0 0 255 0 1 255 0 62 33 27 37 3 0 
85 41 16 174 136 89 185 166 90 157 135 59 82 36 0 
84 15 0 111 26 0 196 93 62 230 107 66 238 103 56 
246 106 57 246 106 53 242 108 55 232 103 48 229 104 50 
230 108 57 226 110 63 225 119 77 165 80 43 86 39 0 
22 35 0 10 51 0 3 45 0 3 49 0 1 55 0 
0 56 0 5 54 0 8 52 0 10 51 0 10 51 0 
7 50 0 33 45 0 84 27 0 117 19 0 153 44 5 
215 87 42 239 84 36 241 77 26 247 87 37 247 91 40 
241 85 34 234 87 35 227 92 44 222 108 58 197 107 55 
168 132 58 114 156 44 78 203 41 38 242 23 6 254 7 
1 253 8 0 255 7 0 255 1 0 255 0 0 255 0 
0 255 0 0 255 3 134 91 82 66 17 0 120 61 27 
211 143 98 217 139 90 202 118 72 150 55 27 122 20 0 
133 25 0 202 86 47 227 100 47 220 84 26 243 100 42 
252 112 59 215 84 38 179 60 18 183 75 36 169 87 37 
172 125 57 159 144 63 113 123 37 53 104 0 95 202 60 
74 209 47 75 207 43 73 210 44 68 213 46 67 214 46 
68 211 43 69 210 44 70 208 50 70 208 52 71 209 51 
94 198 61 20 60 0 52 37 0 104 45 0 186 86 36 
227 89 42 242 84 37 248 90 43 242 85 34 233 76 21 
245 94 37 227 84 26 224 93 37 219 102 49 176 95 39 
132 109 39 101 166 46 44 227 23 4 249 4 0 250 5 
0 255 7 2 255 3 0 255 0 0 255 0 0 255 0 
0 255 5 175 116 102 121 59 36 167 95 55 207 129 80 
221 133 85 221 122 81 148 34 10 146 24 3 148 24 0 
202 76 26 243 113 51 235 100 32 245 104 35 240 104 44 
183 57 16 131 21 0 95 4 0 52 21 0 10 75 0 
81 209 36 55 218 29 41 228 23 33 236 20 25 237 12 
25 242 15 24 241 12 21 241 9 21 241 9 20 242 11 
20 243 14 22 244 23 24 244 24 23 237 15 31 232 14 
53 232 29 81 199 35 74 95 0 117 59 0 165 49 2 
232 83 43 243 85 40 243 81 34 253 94 39 238 84 24 
238 89 21 232 95 27 219 98 41 187 97 44 173 123 72 
124 165 63 47 225 25 7 255 8 3 255 9 0 254 5 
0 254 1 1 255 2 1 255 1 4 253 1 7 251 5 
104 79 38 86 49 5 139 76 32 173 92 47 201 112 68 
217 114 79 196 75 56 165 36 15 155 27 0 203 76 21 
241 113 48 237 106 34 231 97 24 224 95 30 187 70 27 
130 41 7 80 35 0 7 39 0 69 213 38 24 239 13 
12 254 12 0 254 2 1 255 0 3 255 0 0 255 0 
0 255 0 1 255 0 1 255 0 1 255 0 0 255 0 
0 255 4 0 252 4 12 254 10 16 244 7 22 239 12 
68 218 35 138 169 65 102 46 0 145 33 0 202 57 12 
240 86 36 242 85 32 230 77 20 235 87 27 247 104 38 
219 87 23 202 91 35 179 107 48 150 133 61 103 173 51 
37 225 17 2 253 2 1 255 6 0 254 4 0 255 2 
1 255 3 1 254 3 4 253 3 7 251 3 9 70 0 
6 37 0 86 50 0 154 81 46 204 124 89 235 141 113 
243 132 115 208 89 69 212 96 57 221 104 51 217 94 34 
226 101 35 220 97 27 210 95 30 211 110 58 183 129 67 
121 146 52 90 199 54 37 234 23 9 251 7 5 250 7 
3 253 6 0 254 0 0 255 0 3 254 1 3 252 2 
0 252 1 0 254 0 0 255 0 0 255 0 1 255 1 
12 251 10 23 239 18 43 229 32 63 214 41 107 186 58 
108 79 13 162 65 23 180 53 0 224 80 17 242 97 32 
233 89 26 229 89 28 227 92 36 214 87 34 223 109 59 
210 119 72 158 131 54 98 174 42 60 215 33 29 245 14 
5 255 0 0 253 4 0 255 6 0 255 0 0 255 0 
0 255 1 0 255 1 0 255 1 68 213 60 85 195 62 
54 91 0 95 79 19 148 98 63 178 103 82 172 83 69 
164 65 46 182 83 51 204 101 58 193 83 32 202 93 34 
200 97 31 198 102 41 194 108 57 149 126 48 87 178 38 
51 226 33 15 243 8 3 255 3 6 251 6 1 249 3 
3 255 9 0 255 0 4 255 4 3 253 5 2 255 6 
1 255 4 1 255 1 5 251 0 12 247 4 34 235 19 
67 213 40 0 80 0 0 54 0 34 38 0 106 32 0 
184 64 27 225 89 31 230 89 18 243 106 36 237 106 38 
211 87 25 187 85 21 175 111 37 173 145 61 168 167 74 
125 186 59 62 216 32 28 240 16 12 248 2 2 252 0 
1 254 5 0 255 6 0 255 0 0 255 0 0 255 0 
0 255 1 0 255 1 17 243 21 30 231 28 63 215 44 
0 60 0 27 28 0 59 12 4 58 0 0 80 11 0 
90 15 0 144 63 33 181 96 55 189 106 56 205 126 69 
186 113 58 172 105 62 122 130 45 66 215 38 17 245 12 
8 251 1 4 254 0 6 252 1 4 253 3 0 255 3 
0 255 3 0 255 3 0 255 2 0 254 0 2 255 3 
1 252 0 15 250 7 30 239 16 70 211 36 67 102 0 
103 75 12 116 71 12 137 66 14 168 62 20 203 76 31 
224 88 28 225 87 22 228 99 33 224 104 41 196 90 32 
156 108 26 109 161 25 84 206 35 62 221 30 39 232 21 
21 243 12 8 250 6 4 253 1 1 255 1 0 255 3 
0 255 3 0 255 1 0 255 0 0 255 1 0 255 1 
0 255 1 0 255 3 10 255 12 22 244 23 52 220 45 
0 42 0 0 19 0 15 46 0 28 52 0 41 60 0 
68 65 0 156 115 69 201 143 105 194 142 95 173 133 82 
148 127 70 96 152 45 41 229 30 0 255 5 3 254 0 
4 254 0 3 254 0 1 255 1 0 255 3 0 255 3 
0 254 1 0 255 5 3 255 7 0 250 1 8 250 8 
29 234 17 69 211 37 10 72 0 89 47 0 155 56 25 
187 79 43 208 91 48 224 98 50 235 101 48 247 111 53 
232 98 37 224 100 40 213 113 51 183 123 53 128 146 38 
75 213 32 25 236 11 12 251 8 0 255 1 0 255 1 
0 255 1 0 255 1 0 255 1 0 255 1 0 255 1 
0 255 1 0 255 1 0 255 1 0 255 1 0 255 1 
7 250 0 4 247 0 7 251 6 13 243 13 38 237 30 
42 228 33 40 227 34 43 228 36 44 226 29 81 209 52 
16 39 0 61 34 7 73 48 18 38 41 0 12 67 0 
81 204 61 27 237 28 0 254 8 0 255 3 0 255 0 
0 255 0 0 255 0 0 255 0 0 255 1 0 253 4 
3 253 6 0 251 3 8 252 16 18 239 22 66 220 48 
51 91 0 105 66 11 155 70 29 177 64 24 209 83 32 
219 86 29 211 72 13 238 99 40 247 107 54 235 104 52 
206 84 35 182 111 45 110 124 27 97 199 53 43 232 24 
10 248 4 7 250 0 8 254 3 1 255 1 0 255 1 
0 255 1 0 255 1 0 255 1 0 255 1 0 255 1 
0 255 1 0 255 1 0 255 1 0 255 1 12 252 3 
9 254 1 2 255 0 2 255 0 3 255 0 2 255 0 
0 255 4 0 255 7 0 255 2 28 237 24 0 61 0 
0 37 0 0 36 0 0 35 0 0 73 0 49 220 44 
18 242 22 0 254 8 0 255 3 0 255 1 0 255 0 
0 255 0 0 255 0 0 255 0 2 253 2 8 255 9 
0 250 5 13 245 19 40 236 40 0 54 0 44 31 0 
182 97 76 216 112 77 221 100 53 229 94 36 238 96 32 
236 94 30 239 99 38 226 88 39 166 38 0 144 29 0 
104 44 0 23 60 0 74 203 48 28 239 20 0 253 0 
5 252 0 4 251 0 1 255 1 0 255 1 0 255 1 
0 255 1 0 255 1 0 255 1 0 255 1 0 255 1 
0 255 1 0 255 1 0 255 1 4 255 4 5 255 1 
0 248 0 7 255 0 12 253 1 5 248 0 6 255 8 
0 253 3 2 255 6 4 246 4 27 234 20 50 226 39 
66 214 56 0 88 0 0 96 0 34 229 29 13 246 14 
0 255 5 0 255 1 0 255 1 0 255 5 0 255 5 
1 255 1 4 254 0 2 255 0 0 252 0 6 254 7 
18 236 17 52 214 40 0 57 0 57 40 0 176 98 78 
212 114 75 208 93 39 212 82 22 240 102 39 227 89 27 
237 102 46 228 95 50 164 40 2 137 29 0 108 45 0 
43 53 0 99 200 60 30 234 21 3 255 7 0 251 0 
7 255 2 1 255 0 0 255 1 0 255 1 0 255 1 
0 255 1 0 255 1 0 255 1 0 255 1 0 255 1 
0 255 1 0 255 1 0 253 0 0 255 1 8 255 1 
6 252 0 11 252 0 7 250 2 4 254 6 0 254 6 
1 255 7 4 255 7 0 254 0 10 254 6 17 235 17 
28 231 27 34 238 29 22 238 17 10 249 6 1 255 1 
0 255 0 0 255 1 0 255 6 0 255 6 3 254 3 
4 254 0 3 255 0 0 251 0 7 255 4 24 243 19 
54 219 39 0 49 0 35 27 0 186 119 100 229 144 107 
221 119 71 205 90 36 218 97 44 225 105 53 215 97 49 
184 66 26 191 83 47 220 127 93 185 126 82 135 124 58 
101 171 55 39 226 31 0 249 7 6 255 4 0 254 0 
0 255 0 0 255 1 0 255 1 0 255 1 0 255 1 
0 255 1 0 255 1 0 255 1 0 255 1 0 255 1 
0 255 1 0 255 4 0 252 0 0 252 2 6 255 8 
0 254 0 0 253 0 2 255 11 0 254 9 0 251 10 
0 252 7 0 255 0 2 255 0 6 251 6 11 250 11 
11 245 8 17 252 10 8 251 1 4 254 0 0 255 0 
0 255 1 0 255 5 0 255 5 0 255 3 1 255 1 
0 252 0 6 255 3 2 255 0 10 245 5 33 232 27 
0 59 0 28 42 0 144 93 72 208 141 112 213 134 101 
206 117 83 188 95 61 194 104 69 197 109 73 183 95 59 
168 85 51 176 107 74 176 126 89 165 138 95 152 196 109 
58 219 53 16 244 27 4 251 10 0 255 3 0 255 1 
0 255 1 0 255 1 0 255 1 0 255 1 0 255 1 
0 255 1 0 255 1 0 255 1 0 255 1 0 255 1 
0 255 0 0 255 5 1 255 10 0 253 4 0 255 2 
0 255 2 0 255 7 0 255 12 2 253 16 0 252 9 
0 255 0 0 255 0 0 255 0 1 255 3 2 251 1 
6 252 1 8 252 0 6 253 0 0 255 0 0 255 1 
0 255 3 0 255 5 0 255 3 0 255 3 3 255 3 
0 252 0 0 254 0 10 254 6 22 240 21 67 213 54 
1 24 0 62 20 0 72 14 0 86 19 0 94 18 0 
90 13 0 123 48 19 255 216 184 255 180 148 157 89 54 
86 27 0 68 22 0 69 34 2 151 181 109 61 208 57 
23 240 35 5 249 14 0 255 6 0 255 3 0 255 1 
0 255 1 0 255 1 0 255 1 0 255 1 0 255 1 
0 255 1 0 255 1 0 255 1 0 255 1 