P3
# Created by IrfanView
64 48
255
89 117 42 80 108 33 115 139 68 114 140 59 99 121 47 
94 118 41 103 130 52 107 133 54 116 137 59 127 144 69 
123 146 66 115 150 55 94 125 39 113 142 53 109 137 52 
97 125 50 124 152 63 114 139 63 142 164 86 95 121 48 
106 135 52 107 127 56 124 146 57 107 135 47 107 134 51 
102 131 52 115 145 62 102 135 44 111 139 54 95 129 37 
109 144 44 118 142 62 99 134 41 100 132 39 97 127 37 
96 125 45 92 124 33 100 136 44 108 138 51 95 130 45 
91 125 38 83 114 39 84 117 36 89 123 35 73 104 27 
92 122 40 74 98 30 63 92 13 94 123 43 91 115 30 
93 116 41 74 100 24 93 119 35 85 118 31 92 120 32 
72 98 27 94 121 45 72 102 24 69 102 20 90 123 25 
96 124 34 85 112 33 92 117 36 73 101 28 86 113 36 
86 114 38 106 134 63 96 125 42 110 131 62 108 138 57 
96 128 45 109 139 54 90 118 35 114 143 63 91 124 39 
94 124 37 115 143 60 106 136 54 122 152 62 108 136 56 
103 135 48 95 129 47 100 134 44 113 142 64 104 123 53 
123 146 63 126 154 70 109 142 51 85 117 30 119 149 64 
114 142 61 98 122 47 89 115 39 95 134 41 113 144 59 
95 132 38 100 140 39 112 143 56 84 113 33 77 116 28 
94 127 42 85 118 29 87 128 29 80 116 34 109 137 51 
105 134 45 112 142 56 121 139 67 106 132 59 93 125 44 
85 113 33 77 112 30 106 137 46 103 128 49 107 128 58 
61 84 20 93 126 39 101 127 47 95 127 43 101 129 46 
97 123 47 79 108 26 78 108 22 85 114 29 82 114 29 
92 121 44 94 121 45 70 100 24 109 134 58 101 125 51 
119 141 62 86 116 36 94 123 48 97 128 47 96 130 49 
84 116 32 116 141 58 111 142 63 88 124 32 117 142 64 
124 152 66 145 167 85 112 143 47 114 146 61 108 139 49 
106 136 47 99 131 45 121 149 62 119 150 63 110 139 54 
99 127 50 104 137 48 95 131 45 114 144 57 110 142 56 
96 128 48 101 134 49 109 142 51 96 135 46 87 127 30 
94 135 34 121 152 57 102 135 46 118 150 64 125 151 69 
101 135 39 105 134 50 89 114 44 115 141 61 139 161 81 
117 151 59 104 131 48 109 138 58 67 103 17 89 124 30 
85 120 30 82 117 25 86 127 34 106 137 49 90 120 42 
85 120 29 102 130 49 84 116 26 93 124 35 86 120 35 
86 117 37 73 109 20 76 110 30 85 119 33 85 111 38 
74 102 32 61 89 17 99 124 52 103 133 56 122 144 67 
111 138 60 111 136 58 101 130 54 81 110 37 106 138 43 
107 138 48 108 138 57 83 117 42 95 127 42 100 134 47 
97 133 44 97 130 38 94 130 44 117 150 56 121 149 71 
90 127 52 104 140 63 85 120 32 104 140 46 107 142 49 
108 141 50 115 142 53 101 136 48 124 152 68 93 121 42 
81 116 38 87 126 37 102 134 41 98 128 40 98 137 46 
93 129 46 98 134 44 88 121 41 97 131 45 92 122 36 
92 126 38 106 136 50 118 149 65 117 144 53 101 131 42 
92 121 39 95 121 43 59 96 15 114 145 65 92 126 34 
73 110 23 91 126 33 94 127 32 90 125 35 89 127 32 
84 114 36 65 101 22 79 111 28 61 96 14 68 110 16 
79 109 26 79 112 26 78 107 30 68 100 19 79 116 17 
81 113 31 109 132 58 99 125 46 111 138 56 112 136 59 
112 136 58 122 140 69 122 148 65 93 124 39 110 137 48 
100 132 46 86 118 37 106 128 51 105 137 49 96 129 39 
103 134 50 100 130 46 109 140 47 115 143 57 113 146 56 
95 132 41 92 125 45 115 145 58 93 127 40 100 134 47 
114 151 52 103 137 43 119 152 63 104 141 50 90 127 33 
68 107 21 100 141 37 102 138 46 135 160 73 97 125 54 
106 137 54 122 153 65 97 128 42 112 140 53 98 127 42 
95 135 34 99 136 42 104 137 48 91 126 36 92 131 39 
116 150 55 98 125 50 97 124 49 80 123 25 95 133 35 
77 112 29 94 132 29 75 116 15 80 113 25 97 127 44 
67 97 23 75 120 13 69 110 12 74 107 18 72 106 22 
85 114 37 85 115 35 80 107 33 62 92 18 75 104 29 
113 132 57 103 130 45 132 157 75 115 141 63 105 135 56 
118 136 64 132 151 80 112 135 62 114 141 58 125 155 66 
125 152 70 84 119 43 94 130 47 102 137 47 103 135 44 
114 141 67 86 116 45 87 121 44 90 127 35 95 130 41 
102 137 45 106 141 49 98 129 48 104 136 50 112 148 55 
119 149 66 110 144 54 110 142 56 90 124 35 64 105 16 
83 114 30 98 137 43 100 138 43 118 145 64 90 123 41 
103 141 45 103 137 45 114 141 56 96 117 51 96 134 42 
71 109 29 67 109 19 89 130 37 100 136 38 103 141 49 
92 128 40 107 139 51 113 144 62 85 119 30 73 104 35 
89 130 34 88 119 31 104 127 49 68 96 23 61 90 19 
63 102 13 78 119 16 80 121 20 68 106 18 80 114 35 
81 118 25 86 121 33 83 116 31 82 113 37 108 133 53 
98 127 44 105 134 53 113 141 59 117 146 69 114 140 63 
116 138 63 103 134 51 98 127 49 118 146 60 117 148 57 
111 139 58 112 140 60 112 140 58 120 144 62 125 150 74 
122 150 65 84 115 41 102 140 43 105 136 59 87 122 34 
97 130 51 116 146 57 113 142 54 107 141 47 106 138 51 
129 163 73 98 134 43 122 152 63 94 115 43 93 127 43 
87 119 44 81 113 29 119 156 61 112 147 52 110 137 55 
107 139 55 111 139 50 107 135 45 102 137 43 80 114 28 
65 96 24 79 119 25 96 131 40 107 144 55 97 134 53 
98 137 36 108 144 57 96 132 45 107 144 49 92 128 31 
96 131 29 105 133 50 116 134 64 92 103 45 86 109 33 
76 110 26 92 127 40 66 104 21 77 108 29 68 100 21 
80 113 33 86 118 31 82 118 33 99 123 47 105 128 47 
98 127 40 118 146 65 124 152 69 116 142 70 111 135 60 
126 146 66 116 133 66 119 150 63 110 139 56 117 151 58 
116 145 64 112 144 61 101 130 54 109 144 51 92 126 46 
95 125 49 123 153 57 118 148 63 101 131 50 122 156 68 
117 145 64 115 141 55 95 127 35 107 139 51 113 145 55 
107 139 48 101 140 37 104 137 44 115 142 59 124 146 69 
91 126 42 90 135 27 92 129 45 113 141 56 107 139 50 
96 127 48 110 139 51 97 128 41 87 128 32 100 125 46 
83 115 35 95 131 36 105 133 45 85 116 35 87 130 22 
96 130 45 84 127 31 74 110 25 102 126 46 122 145 57 
122 143 55 111 138 48 112 135 45 94 118 46 88 115 30 
78 117 20 72 106 23 73 106 29 76 115 22 78 113 30 
111 139 61 89 116 42 125 138 67 136 146 81 125 147 66 
100 130 52 128 156 72 114 144 66 118 149 66 121 145 66 
127 152 72 120 148 67 113 142 58 101 128 45 111 141 51 
96 126 47 90 122 41 103 134 53 110 142 52 76 107 31 
108 143 54 104 140 51 123 153 64 115 146 61 102 141 41 
118 150 54 121 144 62 111 147 53 117 150 57 99 132 30 
136 163 75 127 149 70 121 144 69 108 134 60 107 133 49 
115 148 54 96 126 40 103 137 42 80 118 31 67 101 23 
100 136 51 97 134 35 109 144 52 107 139 56 86 126 21 
100 139 39 134 156 63 91 115 48 92 128 40 97 134 41 
83 122 32 89 130 30 109 137 54 106 137 50 117 140 54 
100 120 51 96 126 44 86 110 30 78 113 29 81 113 22 
67 107 15 71 105 15 87 124 37 85 116 34 69 107 12 
92 127 44 130 144 74 138 153 84 134 154 74 117 140 63 
117 147 66 125 151 71 117 146 64 108 138 52 133 152 77 
114 140 57 101 135 53 120 153 66 102 136 48 107 139 54 
100 134 43 121 149 74 125 149 70 119 147 60 106 138 56 
123 154 66 113 144 62 98 133 39 100 138 40 119 152 65 
121 157 53 108 141 48 119 146 60 140 163 76 112 138 55 
138 161 77 169 171 106 133 139 69 127 153 63 119 151 63 
112 140 57 110 142 59 119 143 61 127 151 70 92 126 41 
89 123 36 96 127 44 80 111 43 77 114 31 83 123 25 
75 115 25 75 117 25 110 147 58 110 143 44 101 131 45 
109 141 53 104 129 50 97 126 47 111 136 52 105 126 53 
84 119 28 94 126 38 87 122 44 100 130 51 68 107 14 
78 111 33 92 123 38 54 87 21 72 104 29 81 110 39 
128 147 71 137 157 77 118 148 69 106 137 58 113 140 59 
122 151 66 106 137 50 132 161 70 117 146 58 141 165 83 
96 126 45 120 149 66 99 129 40 105 133 46 111 144 58 
122 151 72 86 117 36 136 165 76 136 165 73 115 148 61 
116 154 55 113 145 61 92 128 39 105 136 53 134 165 62 
120 147 59 100 126 48 137 159 80 102 137 46 130 157 71 
134 155 80 131 159 69 114 140 56 114 149 45 117 146 53 
135 162 78 90 126 37 111 146 54 109 141 60 103 134 54 
106 140 50 91 128 38 75 113 24 108 139 53 73 105 34 
84 121 31 118 146 61 101 132 49 83 117 29 84 118 32 
122 147 53 123 138 66 102 119 52 101 121 50 93 118 42 
97 127 35 83 118 31 79 111 24 99 124 51 91 121 36 
95 125 27 80 111 32 75 108 22 74 106 26 125 139 66 
90 115 45 98 125 51 114 136 60 117 142 66 107 133 60 
103 132 51 105 134 57 107 138 54 126 150 69 117 139 65 
127 152 66 122 150 64 120 147 60 98 130 49 121 155 64 
107 139 55 107 141 48 103 137 47 103 140 43 98 133 46 
92 129 40 107 142 49 122 150 63 119 148 63 120 150 55 
124 152 63 148 170 89 121 151 55 127 159 60 133 153 66 
107 139 49 99 137 34 122 151 62 114 147 54 139 159 80 
107 137 49 104 135 44 102 135 53 97 129 37 123 156 69 
92 120 38 115 146 57 123 148 66 109 138 54 108 144 40 
118 151 57 125 143 69 70 98 25 76 110 35 84 126 31 
106 136 48 133 154 76 111 138 57 105 128 54 85 111 43 
75 110 26 88 123 38 88 119 32 81 112 30 77 108 27 
79 115 26 77 109 26 80 117 17 137 152 81 129 150 74 
112 142 62 118 146 70 107 134 59 107 133 58 110 140 63 
118 148 61 112 144 60 113 141 56 112 140 50 99 134 46 
118 150 53 123 151 61 124 155 65 106 141 56 112 145 60 
143 165 77 98 130 45 121 153 65 80 116 29 82 117 27 
85 123 31 91 128 37 99 136 41 130 159 71 113 141 54 
93 129 28 121 153 65 77 114 22 94 133 23 109 143 48 
125 156 65 101 134 47 116 147 59 86 116 35 119 145 63 
95 130 44 86 123 36 99 138 39 88 127 28 101 134 40 
119 150 62 91 128 35 75 119 18 85 122 32 109 140 57 
96 133 38 114 146 55 120 145 66 86 122 38 108 143 51 
113 144 51 107 133 42 107 134 46 102 124 50 63 96 15 
85 123 31 88 119 34 75 114 25 109 138 61 101 125 51 
89 114 34 66 93 20 123 143 72 118 144 66 99 128 43 
109 130 53 113 141 58 109 139 56 101 130 50 109 138 59 
91 118 41 115 141 51 107 131 57 93 121 46 109 138 46 
130 155 67 71 104 28 120 148 64 93 128 39 119 148 65 
100 132 51 115 148 59 114 145 56 113 142 55 115 148 64 
96 134 42 102 140 34 122 157 61 130 161 74 111 139 57 
110 139 53 127 157 62 110 143 49 105 140 40 120 152 56 
107 138 44 109 145 52 115 149 48 118 144 58 124 157 62 
76 112 26 83 123 27 130 157 68 92 128 38 109 143 50 
95 126 44 99 134 41 94 128 35 77 119 28 87 128 31 
97 134 40 96 126 34 86 114 34 107 137 60 97 126 42 
113 140 59 107 134 45 112 141 50 85 115 28 94 127 28 
83 110 34 104 132 54 95 119 47 81 114 25 96 124 42 
76 109 27 116 142 62 102 130 54 124 152 66 113 142 63 
102 136 50 123 150 64 113 142 57 113 140 55 129 157 71 
129 151 70 135 149 72 129 155 70 111 142 58 116 147 67 
103 136 52 97 128 46 120 150 69 125 153 69 108 135 50 
101 139 47 113 147 54 96 128 43 104 137 42 107 135 49 
97 125 35 103 135 50 107 144 47 138 167 79 107 134 55 
104 136 45 99 135 48 118 154 55 99 134 42 111 143 56 
89 121 41 106 142 40 102 133 47 86 117 34 79 116 24 
90 128 28 96 126 42 112 149 52 109 138 49 120 148 63 
80 112 36 102 139 44 74 105 31 118 154 57 102 135 53 
126 138 76 100 122 51 93 125 40 132 155 75 77 108 33 
93 127 44 92 130 34 60 96 11 64 108 9 90 129 22 
94 130 36 80 117 24 84 125 18 83 113 25 73 108 23 
108 134 60 110 139 59 112 142 62 107 140 55 91 122 41 
107 136 57 116 144 59 131 157 71 133 160 79 126 148 72 
118 139 68 124 148 72 115 138 62 123 153 72 123 147 61 
103 132 52 88 122 38 123 155 64 131 164 68 103 137 45 
119 150 64 111 142 52 100 138 45 86 125 33 109 140 43 
111 133 54 116 152 49 113 142 53 107 138 49 88 120 39 
102 136 44 102 136 45 100 134 37 96 130 41 93 119 41 
113 148 47 83 113 33 85 118 37 92 126 39 118 151 61 
101 131 51 94 125 38 94 131 42 112 145 55 100 133 42 
118 151 62 91 127 41 80 119 24 114 149 54 125 151 68 
115 143 59 97 124 48 87 115 44 78 112 28 116 150 54 
90 121 38 65 93 19 70 108 23 100 133 42 87 118 29 
74 110 18 86 117 27 81 113 18 75 109 17 116 143 65 
105 132 54 117 143 60 130 158 76 100 133 49 87 120 33 
121 145 67 136 155 77 118 144 57 149 161 95 137 158 76 
135 157 80 133 160 77 117 143 60 137 157 77 95 121 43 
94 125 41 128 152 63 98 130 48 112 147 53 103 136 52 
100 135 43 115 146 54 114 145 58 128 155 68 89 120 40 
111 146 53 119 145 63 123 151 64 90 117 47 120 150 58 
113 146 48 121 151 62 100 131 45 97 131 43 96 132 35 
118 150 60 97 128 46 100 133 46 88 120 34 81 111 30 
91 123 38 89 124 39 72 112 22 87 129 25 123 154 63 
97 129 37 73 109 20 94 133 34 118 147 68 87 119 33 
120 146 60 86 113 40 85 117 29 76 110 28 96 132 28 
82 116 28 77 107 19 79 114 32 92 127 29 85 117 29 
85 118 20 68 99 18 72 105 20 108 136 62 97 126 47 
111 136 62 121 148 69 121 150 67 110 140 59 123 150 68 
132 157 71 139 164 75 133 148 79 120 148 67 134 160 82 
148 173 84 114 139 61 117 145 60 101 132 48 104 138 41 
118 147 58 123 153 68 89 124 32 112 140 56 115 145 60 
137 166 77 129 157 71 124 152 62 100 134 41 98 129 43 
115 142 61 119 151 62 136 161 68 99 125 50 116 145 65 
107 135 49 107 137 51 108 139 45 86 118 30 93 123 38 
105 135 50 93 124 40 62 97 25 90 133 35 89 125 39 
82 115 32 64 104 10 68 107 21 74 109 27 95 137 31 
114 152 46 114 149 51 122 149 65 88 120 37 106 128 47 
85 116 38 93 124 43 98 131 47 82 113 28 76 111 22 
63 97 18 72 108 27 87 113 33 73 104 26 75 108 20 
73 102 23 110 133 61 107 128 52 123 146 64 117 142 66 
92 120 47 111 142 56 117 145 63 113 145 59 124 150 67 
126 148 71 125 152 66 137 164 68 125 150 70 139 168 82 
122 156 68 108 136 56 119 148 54 115 144 60 106 134 52 
82 109 33 134 165 67 115 146 58 111 143 55 98 130 47 
109 141 58 102 137 50 122 156 55 140 163 80 100 130 50 
126 159 75 115 149 57 120 148 60 119 151 63 115 150 53 
107 141 47 109 138 54 96 126 41 113 145 54 121 147 62 
112 140 58 106 134 57 94 130 45 92 125 38 117 152 60 
92 124 38 85 116 39 72 108 29 65 102 23 111 146 50 
106 143 44 115 145 53 103 128 47 96 130 45 103 134 53 
80 111 27 83 119 32 68 107 16 76 115 21 78 114 21 
89 123 35 110 129 54 103 121 51 111 132 67 99 127 44 
105 129 55 110 135 65 120 142 67 148 172 102 97 120 51 
119 147 65 119 149 73 131 155 72 128 148 71 124 151 61 
126 154 63 138 164 80 119 151 65 112 145 52 121 154 69 
98 127 45 146 175 79 127 156 66 108 140 58 111 137 61 
126 153 69 124 150 65 102 133 50 123 151 63 105 133 59 
108 142 53 129 155 71 125 140 73 113 146 62 125 154 72 
76 109 26 108 137 56 125 155 70 118 140 60 119 147 58 
117 146 59 113 143 56 98 134 40 100 135 38 119 154 58 
112 135 58 104 134 42 109 140 51 102 131 43 97 126 46 
99 134 47 77 112 28 82 117 38 95 134 43 94 132 39 
90 128 35 58 96 16 79 122 15 100 136 32 102 140 45 
92 122 35 108 135 53 76 98 30 97 129 30 74 109 19 
95 124 38 112 136 63 113 124 68 90 110 44 78 97 29 
138 163 82 92 118 48 115 143 54 123 149 71 117 145 68 
138 164 85 137 162 81 146 168 83 137 157 78 108 137 51 
121 151 65 101 137 41 129 159 74 114 149 55 117 144 61 
124 153 70 117 147 65 144 165 79 146 160 83 149 159 94 
108 128 54 123 145 60 99 126 50 114 145 58 92 127 32 
114 146 53 124 149 68 95 122 48 117 145 65 120 149 58 
115 148 54 128 157 65 135 161 79 80 111 37 110 142 52 
111 140 53 97 132 40 110 138 56 117 143 59 99 133 37 
118 136 64 93 126 42 103 135 52 126 146 79 91 126 43 
62 98 20 86 129 28 117 145 62 74 108 29 85 122 31 
78 112 35 78 110 34 75 113 17 87 122 30 103 138 44 
99 132 44 87 121 29 104 139 40 101 130 49 132 156 71 
106 132 51 117 138 66 92 112 48 85 109 34 112 131 58 
102 125 60 115 142 61 119 149 64 109 137 65 129 153 79 
113 143 54 122 147 61 120 148 63 108 140 50 109 135 52 
120 145 58 116 145 59 110 144 55 121 151 59 110 140 57 
133 153 78 164 179 103 155 178 91 152 169 91 121 146 65 
134 158 74 112 137 62 106 140 49 136 161 71 108 141 54 
117 151 58 122 152 62 87 117 46 112 145 60 108 143 46 
122 155 65 117 146 54 124 151 64 117 148 58 100 131 49 
106 137 54 132 156 78 72 105 30 95 132 37 91 125 36 
90 130 36 102 138 46 97 126 50 108 140 52 95 125 50 
83 114 33 111 139 63 96 134 43 76 112 26 75 110 29 
100 134 41 84 118 35 103 133 46 90 128 37 78 118 23 
81 121 26 114 145 59 92 121 45 118 146 61 109 130 57 
107 138 54 107 132 55 93 117 46 133 152 76 119 144 68 
99 126 50 114 143 60 111 133 61 162 178 103 152 151 74 
171 171 83 135 153 68 116 145 62 112 144 57 120 152 64 
127 158 73 131 155 73 138 159 83 113 137 61 125 152 74 
154 176 88 142 168 79 142 170 84 124 152 66 143 169 83 
144 170 83 109 134 57 116 151 57 120 151 66 131 158 64 
116 144 66 111 142 58 94 125 36 110 144 49 122 155 61 
125 155 65 145 170 94 120 151 64 111 144 50 95 133 31 
91 125 39 105 132 51 94 128 37 93 128 45 88 127 35 
106 139 54 75 112 30 119 155 56 103 130 56 73 108 27 
91 126 46 86 125 32 64 98 27 77 116 35 83 118 33 
104 135 53 84 124 26 61 90 19 86 121 34 94 126 39 
99 129 45 96 123 49 103 130 50 114 139 64 95 127 41 
102 131 44 97 127 33 113 136 63 113 142 66 113 139 56 
134 156 76 113 136 61 122 146 69 132 158 75 106 130 51 
116 141 64 104 132 56 111 138 62 121 152 58 111 143 56 
109 139 54 144 164 86 145 166 87 145 168 87 144 167 84 
123 148 66 119 145 60 100 135 49 114 147 58 98 132 52 
99 132 40 121 154 61 92 124 47 97 128 41 101 133 47 
116 146 55 128 159 75 117 152 57 123 151 63 130 148 77 
118 148 68 98 129 47 126 143 78 125 155 71 102 130 47 
93 126 33 94 123 42 86 121 43 105 143 38 95 127 52 
115 151 62 96 135 37 105 142 47 80 115 25 70 109 20 
85 127 36 95 131 46 73 114 20 92 121 43 81 112 40 
92 129 39 97 129 45 94 125 34 79 110 26 93 125 36 
87 114 41 124 144 74 69 90 30 77 110 30 95 131 46 
83 113 31 117 144 62 109 134 61 132 150 67 160 171 95 
159 171 106 134 151 75 126 153 69 119 144 63 118 150 65 
125 151 63 108 136 58 89 123 36 98 131 35 114 148 54 
120 145 65 126 156 62 95 128 49 111 145 55 129 159 67 
99 127 49 118 151 59 110 146 55 111 146 52 111 141 52 
118 144 60 125 152 66 100 131 46 109 143 58 109 130 58 
99 127 49 117 151 50 101 133 48 133 158 78 129 158 63 
111 141 57 83 118 39 105 138 53 119 152 61 110 140 54 
117 145 61 82 120 32 88 126 36 111 152 55 104 139 52 
87 127 36 105 145 43 87 115 34 79 117 23 91 133 28 
65 102 21 81 120 31 118 140 70 79 107 31 111 142 54 
91 115 36 113 146 48 80 112 27 69 99 29 91 126 33 
105 137 51 94 121 56 89 118 44 114 145 54 75 102 21 
125 151 72 118 139 64 145 155 90 169 179 105 150 159 95 
135 154 77 121 145 67 117 140 65 115 139 62 128 154 63 
110 139 65 125 151 59 111 143 49 93 128 43 113 142 65 
135 165 71 126 155 72 105 139 44 99 133 43 123 157 62 
128 157 66 104 134 51 128 160 63 111 140 54 115 147 46 
110 143 49 112 135 58 144 166 84 148 155 87 86 110 39 
121 154 65 125 155 72 108 140 52 105 136 46 87 115 43 
105 134 61 118 152 57 108 140 50 107 140 52 76 111 33 
85 121 31 93 136 30 112 149 56 102 139 43 89 122 37 
100 133 46 87 123 36 118 151 61 96 137 44 72 110 21 
91 123 38 102 135 53 88 120 36 82 113 39 66 99 28 
83 126 25 90 121 35 102 127 57 119 147 62 101 130 47 
88 119 43 99 129 56 119 145 57 102 124 63 117 139 65 
133 153 76 146 154 90 162 167 97 155 169 88 139 158 78 
121 147 62 122 144 67 109 141 46 127 157 71 114 145 56 
124 147 58 92 123 43 93 122 46 109 142 55 145 168 81 
103 126 48 116 146 58 110 141 46 143 169 75 143 167 82 
111 137 56 114 141 49 105 137 37 122 153 61 111 143 51 
130 149 72 127 154 65 91 120 37 116 143 63 93 118 47 
150 180 94 104 131 52 126 150 64 124 148 69 107 137 48 
95 130 39 98 135 43 110 143 53 69 101 29 67 107 23 
89 130 27 112 149 39 106 143 43 98 134 40 93 129 41 
91 128 41 105 141 53 91 134 35 109 142 61 93 127 47 
101 137 44 110 140 47 117 144 55 89 121 34 113 139 57 
111 134 54 117 144 59 82 113 29 102 131 51 82 113 28 
113 142 51 101 128 50 91 122 35 132 154 75 134 154 74 
146 155 93 161 175 96 152 165 87 148 161 94 132 151 78 
128 152 73 116 145 60 125 159 68 122 149 53 137 156 66 
112 145 65 102 131 54 124 155 71 111 138 50 148 167 87 
117 141 63 106 142 59 109 144 53 136 161 78 118 150 60 
123 154 73 81 118 27 127 161 63 108 138 52 108 138 55 
126 157 59 99 128 46 132 161 81 100 132 48 114 144 57 
121 148 64 131 159 71 137 161 75 111 141 55 103 142 44 
113 149 55 104 127 50 74 108 29 93 130 38 97 133 30 
104 137 49 101 137 45 94 125 40 85 123 40 96 140 32 
98 143 34 82 122 24 100 139 50 68 107 22 95 128 36 
96 134 38 97 134 40 90 129 30 108 135 51 89 122 34 
92 131 30 93 124 43 81 114 38 74 107 31 90 130 29 
95 131 38 92 124 42 118 141 65 146 162 88 126 144 74 
122 146 69 161 170 97 155 164 95 142 159 82 121 145 68 
103 130 51 128 153 69 118 143 56 136 159 73 136 156 81 
103 127 50 127 150 70 127 146 63 104 133 51 114 147 60 
122 155 59 99 131 45 128 152 66 128 156 65 110 139 52 
114 142 50 118 152 60 121 149 68 86 121 38 114 150 60 
110 144 52 117 144 67 74 114 27 105 137 48 120 151 58 
148 169 85 113 144 65 110 146 55 106 139 42 124 152 68 
97 118 43 83 116 43 104 141 49 93 128 39 87 126 41 
109 146 51 94 133 41 82 115 35 104 143 40 94 122 43 
83 120 45 106 142 51 86 119 39 117 145 62 94 126 45 
102 140 43 111 143 59 86 113 40 66 94 26 101 130 45 
90 119 33 64 95 27 56 86 24 70 106 25 84 125 22 
80 112 27 122 143 72 150 170 93 123 143 74 115 138 59 
141 163 83 143 159 82 155 174 97 129 154 70 129 149 69 
163 180 88 126 150 64 135 157 73 134 154 69 130 151 73 
145 163 83 117 139 66 107 136 60 100 135 45 129 155 63 
91 118 49 123 146 72 128 155 61 132 157 71 109 141 60 
101 134 44 84 119 30 100 137 41 114 144 64 93 127 49 
126 148 75 121 143 80 110 140 59 121 151 66 113 144 56 
142 171 85 119 154 51 139 167 76 109 142 48 129 157 63 
114 140 66 103 136 54 138 166 75 102 136 52 104 143 43 
103 136 58 66 98 23 103 139 48 101 133 44 105 138 50 
102 141 42 96 131 39 102 132 52 93 117 52 109 139 58 
122 157 59 80 113 27 58 94 16 92 133 23 95 122 39 
62 94 15 65 94 22 67 103 14 89 126 24 92 119 42 
127 151 76 109 134 61 128 150 80 136 156 78 137 161 83 
144 164 92 140 163 77 126 148 70 149 169 84 138 161 78 
153 169 86 160 168 100 119 135 68 113 138 62 118 140 59 
117 141 53 143 171 75 120 148 62 124 153 66 122 149 71 
103 131 50 108 136 57 122 152 63 130 157 69 116 147 64 
96 128 41 68 104 31 110 143 54 102 123 54 108 138 48 
136 159 69 106 136 53 94 125 50 120 149 66 93 128 40 
142 166 76 140 161 88 124 151 68 121 150 65 118 145 62 
82 116 39 99 131 43 102 139 36 91 124 36 93 121 54 
113 145 63 110 140 51 109 143 56 89 124 39 85 124 34 
94 131 44 112 144 56 62 98 18 87 124 35 101 130 45 
105 124 57 76 108 29 81 120 30 85 121 31 76 103 34 
74 111 31 75 107 27 90 123 33 87 113 44 135 154 78 
132 151 78 114 136 65 128 145 72 158 166 100 144 155 96 
151 163 94 166 175 104 154 159 97 133 149 76 135 155 82 
142 164 77 132 152 73 104 131 56 109 138 53 96 126 36 
110 137 57 123 153 60 147 174 78 130 160 67 125 152 64 
101 130 53 123 149 68 131 153 76 108 137 54 107 141 58 
101 129 56 124 147 73 113 142 60 82 110 33 93 124 42 
101 130 50 142 171 88 92 123 40 83 116 31 116 154 47 
136 157 73 120 143 66 106 138 50 102 135 43 114 146 62 
101 131 50 100 133 47 115 141 67 93 125 45 82 116 33 
123 160 63 81 120 35 67 111 13 79 115 26 61 102 19 
105 138 56 64 97 24 87 128 35 83 114 29 88 116 38 
82 116 38 112 141 59 90 120 42 112 143 55 90 115 45 
88 113 41 88 116 39 64 88 32 168 184 108 121 143 69 
129 153 76 115 139 65 136 157 82 162 176 100 172 184 110 
135 151 78 148 163 83 155 163 98 139 145 95 135 163 72 
128 155 67 102 136 46 102 132 47 105 134 50 143 165 77 
124 152 66 132 160 81 121 149 65 114 140 57 140 163 80 
109 136 54 118 148 62 109 139 59 104 129 56 129 146 78 
111 131 65 112 136 57 124 150 70 112 132 54 91 119 47 
115 140 62 96 127 42 116 147 56 123 150 63 118 146 62 
115 145 56 104 139 52 95 127 40 104 132 51 88 111 37 
92 129 36 100 133 48 92 129 42 103 135 50 109 147 54 
97 125 50 98 135 48 97 130 51 113 144 69 89 120 40 
97 132 48 100 133 48 92 120 46 98 132 44 133 152 73 
102 126 52 92 122 53 91 120 36 97 125 38 76 101 35 
96 125 45 64 96 18 145 164 86 117 141 65 106 133 53 
127 152 68 131 147 73 147 168 89 143 162 84 141 159 83 
145 166 82 154 169 89 140 159 83 166 185 103 93 125 42 
128 156 74 99 131 49 96 128 49 134 162 70 122 148 60 
132 162 73 123 150 65 138 156 81 114 138 62 124 151 67 
101 129 45 117 145 62 74 105 32 127 147 73 113 131 61 
106 133 47 126 151 61 137 148 77 114 134 65 136 160 78 
103 132 43 99 134 38 109 142 46 89 121 41 105 135 56 
107 138 51 109 141 58 83 110 39 95 131 43 123 152 69 
117 149 57 108 137 47 120 152 63 115 148 53 79 110 34 
105 138 56 74 115 19 88 121 41 93 129 36 97 135 42 
94 125 47 68 99 32 89 123 34 90 120 32 81 109 37 
76 106 37 70 102 29 79 119 23 66 98 23 96 120 48 
76 99 33 118 142 59 119 144 67 143 167 87 149 169 85 
154 171 93 145 163 85 149 154 86 151 163 99 122 143 70 
126 150 65 120 147 59 132 154 75 111 138 55 153 173 87 
130 156 68 123 153 64 125 154 71 112 143 63 126 154 75 
134 158 72 125 148 63 158 179 90 127 152 68 114 136 61 
121 150 71 109 140 55 100 128 50 92 122 44 116 147 63 
113 141 50 133 153 73 130 157 70 128 154 75 102 133 48 
107 135 48 123 151 59 100 133 49 83 118 37 116 145 63 
114 144 56 110 138 53 121 147 68 123 143 58 97 133 34 
82 119 21 84 121 34 108 143 56 101 136 60 87 125 46 
125 157 67 84 119 40 87 121 38 114 147 69 108 138 55 
97 129 46 106 141 53 104 135 50 107 132 67 142 163 85 
84 111 45 78 105 31 63 86 25 49 65 25 57 81 26 
117 139 63 123 143 62 151 165 94 156 176 93 120 143 63 
127 150 65 128 151 69 151 164 91 146 152 91 111 139 53 
117 138 65 94 125 52 112 142 60 114 142 64 119 148 57 
111 140 50 93 125 43 100 137 41 140 160 73 105 132 56 
88 120 37 145 155 88 143 167 79 115 144 66 98 127 46 
123 149 74 80 116 36 100 133 47 76 109 28 120 151 57 
144 169 83 127 145 67 103 126 50 101 128 49 86 118 45 
113 140 48 96 129 40 78 110 28 100 133 45 83 116 42 
103 138 44 88 121 39 88 125 28 115 145 59 107 139 49 
91 125 35 95 127 45 100 129 59 125 157 76 98 128 47 
110 140 70 122 148 68 105 133 59 78 110 31 116 150 59 
110 141 50 86 127 33 97 126 42 111 134 61 104 131 58 
71 86 37 96 120 55 89 107 39 87 103 56 115 139 69 
124 149 59 139 154 80 144 159 87 124 144 72 115 140 55 
141 161 79 128 154 68 122 148 61 118 145 52 118 144 59 
111 134 61 145 165 83 121 150 63 115 143 57 118 146 59 
112 143 55 116 147 62 126 153 72 102 130 50 90 119 46 
90 110 40 116 139 62 96 132 48 101 138 56 109 136 60 
104 131 52 80 110 34 92 126 40 90 124 30 124 151 66 
113 140 53 118 145 65 111 135 59 76 108 33 85 118 36 
108 139 53 97 127 50 119 152 51 97 129 34 70 103 26 
96 127 43 109 139 52 105 139 44 130 156 61 108 134 64 
116 140 66 102 128 50 108 137 52 97 130 52 94 119 44 
124 159 71 86 115 48 86 120 55 109 143 50 89 124 39 
99 131 51 90 124 46 91 121 41 95 127 50 86 113 46 
112 132 61 81 104 35 53 88 14 129 146 67 125 145 69 
136 158 86 134 147 70 129 152 81 120 145 57 136 159 76 
130 157 69 110 136 61 127 155 70 145 164 80 125 153 68 
116 142 52 125 150 69 92 123 44 135 164 79 110 142 60 
129 157 75 130 149 66 101 130 53 105 136 56 73 103 38 
115 142 66 120 146 63 113 139 61 139 165 76 77 112 38 
89 127 38 97 127 42 113 142 59 123 150 62 112 140 55 
172 189 116 107 136 50 119 148 55 80 105 38 85 120 30 
95 131 31 81 116 29 87 118 33 92 122 46 112 146 63 
118 144 56 105 126 51 101 125 47 100 124 49 121 147 66 
116 147 58 117 148 65 112 141 65 116 146 62 115 143 64 
90 126 52 108 140 60 90 125 37 95 128 50 85 122 30 
80 111 34 83 116 37 99 128 49 89 120 39 90 117 36 
87 110 51 71 104 25 106 125 45 108 136 61 104 129 50 
107 138 57 120 143 59 113 138 56 132 156 71 151 169 92 
122 145 65 131 157 75 127 154 70 105 132 56 109 139 55 
107 137 59 111 139 60 138 160 75 133 154 76 115 144 61 
97 124 42 124 154 67 139 166 86 101 131 52 106 135 45 
119 149 67 112 143 58 127 153 73 89 115 42 107 136 54 
121 138 68 107 134 49 97 131 43 106 133 54 120 145 64 
119 144 63 91 122 36 116 138 63 77 110 30 70 108 27 
83 119 35 98 129 49 111 142 49 98 132 43 97 128 38 
118 146 62 107 134 51 102 132 59 105 130 54 133 164 85 
117 144 66 110 139 61 96 123 47 86 119 41 93 128 50 
101 135 56 102 127 49 90 118 42 92 122 48 89 122 51 
123 145 67 90 119 47 83 116 39 87 121 41 60 84 28 
79 103 35 104 127 53 133 153 66 108 130 54 131 156 74 
144 168 87 113 136 60 130 152 78 126 154 70 112 143 60 
120 146 59 135 160 78 128 156 72 117 143 62 139 160 78 
109 130 55 116 143 58 96 128 41 131 158 69 85 116 38 
122 149 62 124 149 64 130 149 78 96 120 49 105 134 51 
123 149 59 133 158 75 107 132 60 120 147 73 146 152 90 
109 125 60 105 137 53 109 143 55 101 129 62 85 122 41 
131 161 72 81 109 41 115 141 56 82 111 39 118 145 56 
122 143 65 113 136 57 76 115 25 96 127 37 90 122 46 
124 154 73 79 109 42 96 129 45 94 126 47 89 119 42 
118 149 67 104 133 52 98 134 59 95 128 45 95 129 46 
100 128 50 74 107 33 97 131 54 93 118 46 122 147 82 
102 132 59 106 130 64 91 115 46 81 110 49 94 116 58 
104 131 58 104 128 52 120 148 72 110 134 58 137 162 85 
125 149 70 117 145 63 127 154 65 112 136 56 132 155 77 
119 145 62 126 151 67 121 146 69 113 138 51 130 152 71 
107 139 63 120 146 63 117 146 59 109 143 57 96 127 46 
82 111 36 122 144 69 131 152 78 128 150 72 129 156 63 
137 166 82 121 152 67 99 132 46 111 136 63 99 125 54 
104 130 55 110 141 59 139 167 89 140 155 86 121 149 70 
122 151 74 118 143 58 131 155 64 117 144 57 129 156 72 
113 141 63 99 135 50 104 138 49 87 121 40 103 136 46 
100 130 43 122 151 58 123 146 67 83 108 44 78 111 32 
110 146 56 125 154 74 106 130 54 61 86 28 82 110 29 
56 85 24 58 94 29 100 128 57 109 141 59 109 134 57 
95 121 50 88 111 47 83 101 46 88 110 54 127 150 75 
103 127 50 135 147 78 111 133 57 133 153 77 123 147 73 
121 146 71 114 141 66 121 147 66 145 170 83 157 175 90 
114 140 58 115 137 66 112 139 65 129 156 69 113 143 65 
116 139 63 109 140 65 98 128 54 83 115 37 66 99 31 
108 140 54 93 120 43 142 162 85 143 170 83 142 162 80 
140 149 84 109 134 55 126 149 71 96 127 49 106 137 54 
117 147 68 141 158 79 109 131 56 132 155 79 120 142 73 
100 123 51 106 139 42 109 143 52 93 127 40 111 144 59 
102 129 54 94 119 43 65 104 22 96 130 52 100 133 44 
101 130 44 132 156 69 82 115 34 107 139 44 146 168 92 
106 136 54 98 129 51 68 102 38 58 89 25 66 97 24 
94 126 51 85 113 43 107 134 56 68 101 24 82 111 34 
104 120 56 76 100 33 69 94 28 131 148 76 157 174 90 
131 148 73 123 144 73 112 132 59 120 137 67 127 146 62 
107 133 53 101 128 47 111 135 62 125 147 66 141 160 84 
116 136 66 103 128 62 129 154 72 104 131 50 83 110 37 
128 153 73 109 137 59 85 118 48 116 145 69 106 135 53 
98 128 47 120 142 65 122 151 56 131 144 70 148 151 91 
96 118 53 145 161 86 89 116 50 80 112 32 115 142 60 
117 146 55 107 137 52 114 138 60 104 131 58 98 131 50 
121 145 63 105 126 57 86 119 36 120 151 66 96 124 49 
76 108 27 113 146 58 100 130 41 77 112 26 82 109 37 
91 115 50 119 148 59 98 129 46 80 119 26 122 149 69 
65 96 21 52 81 22 59 94 27 68 101 30 71 101 27 
79 110 29 72 105 34 104 132 55 72 102 33 95 117 44 
58 87 19 72 99 34 120 133 66 132 145 77 133 151 74 
116 139 62 114 138 56 116 139 61 106 133 51 132 156 77 
131 154 78 97 128 55 121 142 65 127 146 70 122 143 61 
131 145 81 106 136 60 106 136 51 107 136 60 93 122 49 
92 122 43 100 130 49 102 133 45 110 134 54 104 127 60 
128 154 80 127 150 70 108 128 51 97 113 49 108 131 61 
106 127 60 110 132 54 130 149 73 123 141 67 133 151 84 
111 135 57 93 117 43 83 115 38 122 149 61 118 148 49 
83 109 38 100 133 50 115 137 65 103 129 53 118 143 62 
88 114 43 105 135 50 61 88 22 98 132 55 104 135 39 
84 114 40 108 131 57 80 112 37 87 118 41 87 114 51 
53 86 19 82 110 33 63 91 26 83 117 40 74 98 29 
75 97 42 84 112 34 74 106 24 85 112 39 50 66 19 
50 72 25 124 139 73 128 140 73 105 132 50 116 135 59 
114 134 58 116 138 62 146 163 81 131 151 76 121 143 67 
117 141 59 107 133 57 127 152 72 127 150 77 109 135 57 
118 139 62 117 142 59 121 147 66 126 151 68 78 111 26 
118 146 63 115 140 68 80 104 42 108 143 55 144 168 92 
144 167 80 111 136 59 104 127 51 108 130 59 114 138 66 
112 143 58 105 120 45 132 145 81 109 125 53 98 125 48 
97 127 53 85 115 45 110 138 54 94 122 41 111 140 63 
82 109 33 102 129 51 107 135 55 127 150 77 119 140 63 
115 134 63 79 104 40 109 134 54 83 109 36 76 105 31 
99 127 45 95 122 54 83 115 45 100 125 48 62 91 26 
41 70 17 56 90 11 77 114 25 63 92 16 72 101 26 
91 119 39 83 117 34 92 128 46 55 78 22 40 64 18 
120 140 72 112 129 60 111 135 59 122 136 65 115 135 61 
135 157 82 136 153 75 130 150 70 129 151 69 104 129 48 
110 136 61 101 124 52 118 143 51 105 128 48 115 138 57 
113 136 55 110 135 57 103 128 53 95 124 54 118 146 72 
106 129 60 138 162 89 135 157 75 138 149 81 124 137 69 
108 134 64 92 120 46 95 121 46 118 143 65 143 157 92 
123 138 77 132 151 74 95 120 51 108 138 57 85 112 39 
81 114 41 90 124 46 110 138 64 119 146 68 129 151 64 
94 118 47 104 134 58 99 128 54 159 166 101 88 96 48 
82 102 40 130 156 77 63 91 23 74 111 35 105 132 54 
85 106 39 109 133 55 96 119 49 79 103 44 67 97 26 
46 79 14 72 105 27 63 92 26 55 84 23 72 105 30 
70 105 13 96 123 40 68 86 34 78 104 40 102 125 54 
103 127 57 104 125 50 110 130 58 124 143 65 121 141 71 
98 122 51 105 127 56 131 143 65 98 119 44 119 141 63 
114 139 64 120 138 59 127 147 57 124 147 60 126 143 69 
125 146 67 114 140 58 98 123 46 123 143 71 100 121 51 
151 162 90 113 131 61 110 130 62 93 112 44 89 111 50 
102 126 59 107 138 60 100 132 51 105 126 60 133 157 84 
119 145 55 105 135 49 108 133 52 107 133 56 95 121 40 
94 120 48 91 116 49 122 143 70 117 144 60 132 152 72 
110 138 52 104 134 55 131 151 70 100 115 56 66 86 30 
78 111 28 118 141 60 111 132 57 83 103 39 80 101 32 
90 122 29 94 115 53 74 103 31 98 125 45 55 81 33 
67 95 34 57 87 18 64 97 17 63 95 24 85 115 23 
73 105 15 73 103 21 72 95 34 112 135 63 100 124 49 
103 123 55 117 137 72 121 144 75 102 128 54 98 125 51 
110 130 60 131 139 79 128 143 68 130 154 71 98 124 45 
114 131 61 110 134 51 136 143 75 163 150 112 155 159 94 
102 124 52 107 128 50 131 150 67 130 151 70 109 123 48 
102 128 47 131 145 74 119 129 72 127 136 81 88 110 46 
107 130 57 80 106 41 109 131 70 107 127 64 105 133 54 
97 122 53 79 110 30 94 121 52 90 119 43 113 137 59 
109 137 53 129 152 63 99 120 43 109 133 54 120 146 54 
84 110 36 103 128 57 89 110 43 52 75 25 73 107 28 
61 91 16 91 116 46 93 120 37 77 110 26 122 144 75 
88 106 44 96 126 40 88 113 41 75 101 42 38 62 16 
55 86 20 61 96 18 77 100 32 61 88 20 60 94 16 
88 118 48 59 80 22 